<svg version="1.1" id="Layer_1" xmlns="http://www.w3.org/2000/svg" xmlns:xlink="http://www.w3.org/1999/xlink" x="0px" y="0px"
	 width="100%" viewBox="0 0 592 400" enable-background="new 0 0 592 400" xml:space="preserve">
<path fill="#000000" opacity="1.000000" stroke="none" 
	d="
M479.979614,184.621246 
	C497.941010,185.965286 502.098602,195.625046 494.742523,217.852097 
	C503.629425,224.972626 503.422668,224.900513 499.488129,236.180878 
	C493.455902,253.475281 487.744781,270.881622 481.884247,288.236053 
	C481.507904,289.350464 481.136810,290.437134 481.501556,291.584900 
	C483.238922,293.189636 485.087799,292.036926 486.786987,291.878296 
	C503.706146,290.298462 517.294495,295.697784 526.249390,310.684357 
	C527.770447,313.229980 528.879456,316.075806 529.807800,318.904724 
	C530.570435,321.228821 531.506653,324.224335 529.274170,325.901947 
	C526.830627,327.738159 525.106934,324.951965 523.382324,323.566284 
	C516.168274,317.769989 507.387207,317.266205 498.797150,316.503632 
	C490.647247,315.780090 482.518097,316.986481 474.395142,317.781189 
	C471.115631,318.102020 469.423889,319.611877 468.264832,322.602814 
	C464.713165,331.767731 460.749573,340.761383 456.129425,349.450012 
	C453.383698,354.613525 450.298889,359.569061 446.423187,363.960205 
	C438.080109,373.412750 427.555511,376.330536 415.637787,372.985260 
	C404.784546,369.938812 398.261475,362.215546 397.231628,351.069092 
	C396.123352,339.073730 400.365540,328.532410 408.677429,319.700226 
	C418.479370,309.284729 430.941742,303.441223 444.304321,299.410736 
	C448.663910,298.095795 451.061493,295.893585 452.267609,291.638580 
	C453.340546,287.853485 454.960297,284.223389 456.512695,280.058075 
	C439.404663,293.817200 435.705994,293.130768 422.288147,273.887329 
	C418.680084,277.043854 415.146362,280.236694 411.502350,283.298279 
	C406.655151,287.370758 400.983704,289.621094 394.751343,290.549835 
	C385.394592,291.944214 378.983612,288.288239 375.573181,279.232391 
	C371.307312,267.904968 372.357025,256.261993 374.182922,244.684006 
	C375.342224,237.332870 376.999237,230.060226 378.144958,222.648895 
	C367.320740,241.027252 357.161774,259.676392 355.354858,281.542236 
	C355.017609,285.623657 353.311707,286.626984 349.498688,285.872284 
	C342.163513,284.420410 336.734894,280.451660 332.878387,274.167450 
	C331.849762,272.491302 330.884644,270.776184 329.623260,268.623047 
	C324.313904,274.489716 319.372803,280.047974 313.245148,284.375793 
	C308.928741,287.424408 304.258392,289.432831 299.084381,290.278870 
	C288.464600,292.015350 282.075806,288.192810 278.843384,277.932678 
	C275.927185,268.676331 276.313660,259.217072 277.633972,249.742599 
	C280.015747,232.651001 284.377563,216.128281 292.106659,200.632446 
	C299.414703,185.980850 304.518738,184.762009 317.949066,194.118118 
	C324.329010,198.562637 324.515869,200.065231 320.282196,206.513321 
	C311.301941,220.190872 305.314606,235.120041 302.654694,251.258972 
	C302.015991,255.134399 300.653534,260.353699 305.373169,262.441864 
	C309.944366,264.464355 312.927032,260.368622 315.729401,257.260162 
	C316.063568,256.889496 316.340698,256.466492 316.682587,256.103851 
	C324.383026,247.936554 329.367310,238.753586 330.925629,227.229904 
	C332.577637,215.013474 336.979187,203.363495 343.089203,192.516144 
	C347.726257,184.283783 350.797363,183.257172 359.271759,187.005386 
	C362.628784,188.490189 365.922760,190.131210 368.774384,192.477127 
	C372.811035,195.797928 373.131012,198.033218 370.003021,202.211029 
	C362.827057,211.795425 358.100769,222.459442 355.589722,234.158615 
	C361.546234,223.029068 367.802521,212.116165 375.708527,202.241791 
	C379.573517,197.414551 383.741852,192.871643 388.695709,189.145081 
	C394.569153,184.726776 400.807800,182.935059 407.732300,186.919647 
	C410.180084,188.328171 412.856567,189.355362 415.240753,190.855301 
	C421.739349,194.943695 421.882874,197.034515 417.756714,203.487839 
	C408.329102,218.232452 401.697235,234.121246 399.206238,251.568283 
	C399.019592,252.875458 398.985046,254.232147 399.091553,255.548691 
	C399.618561,262.061035 403.243896,263.940613 408.373322,259.927673 
	C414.559723,255.087769 419.431244,249.644562 421.077759,241.074234 
	C426.517120,212.762650 444.362732,195.104324 471.164215,185.949356 
	C473.793793,185.051132 476.728088,185.044922 479.979614,184.621246 
M453.983856,257.359100 
	C456.717285,256.730530 458.733551,255.043839 460.434509,252.926437 
	C465.728760,246.335938 468.493683,238.452652 471.686005,230.791824 
	C472.073547,229.861847 472.271698,228.817215 471.583130,227.930527 
	C468.882050,224.452164 470.841370,221.782043 472.982300,219.048157 
	C475.746307,215.518631 479.320282,212.664764 481.561707,208.703766 
	C483.165161,205.870239 482.500671,204.318405 479.103394,204.183990 
	C475.856659,204.055557 472.863281,204.879288 469.998169,206.352646 
	C456.690613,213.196014 444.766602,235.132401 446.454620,249.915390 
	C446.913269,253.931931 448.178833,257.517578 453.983856,257.359100 
M433.110413,335.619049 
	C435.008301,332.594421 436.939606,329.584930 437.993286,325.770935 
	C433.845398,326.282135 430.464844,327.595062 427.076874,328.878815 
	C420.703278,331.293793 414.311218,333.717224 409.028656,338.196350 
	C404.654846,341.904968 405.279694,345.252930 410.562500,347.545715 
	C414.663361,349.325562 418.577393,349.140808 422.480133,346.878357 
	C426.936340,344.294952 430.035339,340.473816 433.110413,335.619049 
z"/>
<path fill="#000000" opacity="1.000000" stroke="none" 
	d="
M277.605652,310.959900 
	C281.928772,308.765900 283.794617,305.056061 285.704895,301.312592 
	C288.139191,296.542267 293.207672,296.252716 295.634766,301.075653 
	C300.846191,311.431519 298.793427,321.656799 293.201782,331.079102 
	C288.094299,339.685608 279.910309,343.573730 269.921783,342.646790 
	C255.372833,341.296631 244.588654,332.921204 235.351776,322.526367 
	C218.766296,303.861755 208.396088,281.842712 201.812363,257.920807 
	C201.327789,256.160095 200.876389,254.390259 200.141830,251.612045 
	C197.947266,257.110626 196.140732,261.807678 194.204376,266.450562 
	C190.920517,274.324402 187.106979,281.871765 181.128799,288.153107 
	C172.684326,297.025848 160.308929,299.613068 148.510147,294.820343 
	C138.326523,290.683716 131.454910,280.325836 131.651581,269.304138 
	C131.678024,267.821777 131.835205,266.293640 132.242508,264.875977 
	C133.141037,261.748688 134.907791,260.777954 137.740143,263.014343 
	C139.433441,264.351349 141.122986,265.722565 142.956024,266.847290 
	C147.389801,269.567841 151.781998,269.216003 156.121918,266.450470 
	C161.509888,263.017151 164.969482,257.935638 168.028183,252.554733 
	C175.226257,239.891754 180.045914,226.219910 184.811462,212.527588 
	C190.556564,196.020721 195.490372,179.234924 201.859177,162.942215 
	C202.085846,162.362381 202.155869,161.721313 202.418243,160.597702 
	C195.402618,160.346069 188.972321,162.019562 182.545105,163.328033 
	C166.079834,166.680115 150.554932,172.409363 136.530838,181.913620 
	C127.244888,188.206787 122.738190,196.958206 122.267220,207.995163 
	C122.132278,211.157288 122.157326,214.337601 121.811951,217.476898 
	C121.206581,222.979477 118.313713,224.534088 113.104301,222.375076 
	C96.375031,215.441681 89.624504,192.453751 99.911797,177.561462 
	C105.708313,169.170212 113.643066,163.429611 123.025604,159.968002 
	C149.387482,150.242035 176.537750,143.914444 204.607391,141.559753 
	C213.691620,140.797684 222.509995,140.047592 230.676147,145.359009 
	C239.638092,151.188034 238.934464,154.511902 235.017273,161.179932 
	C226.115295,176.333252 220.426437,192.916611 214.303482,209.289993 
	C213.811279,210.606201 212.849014,211.988373 213.881592,213.830566 
	C218.033752,213.992447 221.942703,212.585495 225.630188,210.741364 
	C249.737854,198.684830 268.081512,180.576828 281.320740,157.207169 
	C283.971375,152.528351 285.435303,147.475143 286.043976,142.069366 
	C286.785645,135.482056 289.604553,134.317398 295.006927,137.909470 
	C304.831909,144.442154 310.379272,157.651337 306.780304,166.255539 
	C304.302673,172.178925 300.415314,177.228943 295.954254,181.739090 
	C274.687256,203.240021 250.022583,219.613113 221.615204,230.130066 
	C218.164291,231.407669 216.508423,232.533188 216.979614,236.739685 
	C219.499298,259.233093 230.157349,277.682831 244.859940,294.174591 
	C249.856476,299.779175 255.387802,304.801544 261.964050,308.632935 
	C266.820557,311.462250 271.777252,312.613922 277.605652,310.959900 
z"/>
<path fill="#000000" opacity="1.000000" stroke="none" 
	d="
M176.036255,81.884766 
	C178.561951,83.395401 179.807693,81.811264 180.803940,80.295380 
	C184.830032,74.169250 188.101440,67.660851 190.613785,60.385765 
	C188.039322,60.428047 185.671570,60.925777 183.732727,59.254101 
	C180.315994,56.308174 181.530945,50.975349 186.403397,49.513947 
	C189.686417,48.529259 191.681091,47.273247 192.702026,43.780449 
	C193.349121,41.566605 195.522705,39.798946 196.848022,38.047497 
	C198.987503,38.152348 200.131454,39.300926 201.089966,40.314789 
	C204.407379,43.823723 207.176392,47.767750 212.939362,47.711639 
	C215.181885,47.689800 216.211655,50.247833 216.305740,52.633259 
	C216.403778,55.119080 215.279633,56.746704 212.956360,57.599159 
	C211.900314,57.986652 210.867188,58.436539 209.353119,59.048225 
	C213.194962,65.884026 217.877045,71.602783 223.467102,76.613297 
	C225.255066,78.215881 226.814453,77.807381 228.010757,75.867996 
	C232.960022,67.844452 236.053970,59.079315 238.284988,49.974113 
	C238.604263,48.671062 238.345413,47.593460 236.926178,47.226257 
	C235.598694,46.882790 234.254379,46.943268 233.175766,47.965637 
	C232.338348,48.759388 232.234055,49.663319 232.948471,50.624702 
	C233.418900,51.257767 233.861771,51.911301 234.304123,52.537460 
	C230.329468,55.877380 226.374908,56.074108 222.429352,53.206051 
	C218.676331,50.477932 217.880936,46.801155 219.337616,42.570812 
	C222.174850,34.331230 233.819046,30.986460 242.204590,36.001247 
	C243.460861,36.752533 244.573257,37.744400 246.017929,38.823441 
	C243.469238,24.254984 256.955231,24.941010 263.605652,18.871052 
	C264.929749,21.032053 263.766327,22.318546 263.252655,23.630636 
	C255.230194,44.123821 248.290253,64.951996 243.299698,86.414589 
	C241.356598,94.771194 239.816360,95.623360 231.296188,95.971191 
	C181.578857,98.000877 133.684479,108.452682 87.655586,127.371513 
	C80.372673,130.364929 78.632797,130.133987 73.894135,124.262032 
	C59.427696,106.335815 43.492096,89.790047 26.839529,73.910568 
	C26.243635,73.342339 25.580038,72.799667 25.794794,70.722580 
	C31.290997,72.732964 37.014194,70.810318 42.598804,72.528900 
	C49.761181,74.732994 49.983654,80.710091 50.398045,86.712631 
	C50.421314,82.311195 51.297462,78.255211 54.515110,75.075729 
	C57.764320,71.865074 61.853249,70.393257 66.273804,70.257263 
	C71.006996,70.111641 75.134758,71.744667 77.684021,76.080299 
	C79.541000,79.238548 79.589134,82.434608 77.341415,85.447487 
	C74.795898,88.859543 71.681305,91.027924 67.338608,89.861755 
	C65.587265,88.260994 67.923805,86.907860 67.008629,85.212067 
	C65.963531,83.847488 64.314049,84.000244 62.732655,84.690720 
	C61.208363,85.356247 60.925232,86.753418 61.876209,88.007599 
	C67.859825,95.899040 74.819260,102.777649 83.295929,107.995659 
	C85.260567,109.205040 86.496948,107.915848 87.204163,106.252029 
	C90.138298,99.348907 91.927483,92.154633 92.978416,84.161697 
	C88.387581,84.948105 83.911385,85.462044 83.265999,79.947136 
	C82.669060,74.846176 86.897766,73.441544 91.129005,72.047394 
	C89.958031,67.435814 92.281517,63.859684 94.697220,60.063450 
	C98.770218,61.600185 102.712433,62.902031 104.627724,67.149506 
	C109.090111,65.892853 113.698349,64.290253 116.184975,69.567993 
	C118.371895,74.209602 114.618973,76.036575 110.591698,77.987976 
	C116.020416,83.841034 121.756340,88.722527 128.420624,92.527527 
	C130.291855,93.595917 131.728897,93.098602 132.346863,91.115875 
	C135.480484,81.062042 137.995758,70.917412 135.830063,60.263969 
	C135.378494,58.042599 134.474838,55.864395 131.917618,55.718853 
	C129.829666,55.600021 127.850372,56.856991 127.246750,58.879349 
	C126.321350,61.979755 129.882980,61.066410 131.159790,62.609787 
	C129.625992,66.796791 126.180122,68.053192 122.188118,68.161362 
	C118.522179,68.260689 115.242783,67.237488 113.363297,63.659817 
	C111.152054,59.450630 111.181526,55.263401 113.964912,51.388214 
	C116.956818,47.222721 121.300522,45.247231 126.313255,44.684639 
	C128.083939,44.485912 129.871338,44.436028 132.294632,44.275585 
	C127.804810,37.512436 130.411255,32.330139 134.747131,27.258429 
	C136.644531,25.039034 137.867020,22.242657 139.723938,19.164663 
	C143.429047,22.969414 148.069901,24.905907 152.166306,27.668455 
	C156.883942,30.849960 157.140839,35.567059 154.950836,41.349594 
	C161.723190,35.430691 168.610443,33.957703 176.072357,37.928181 
	C181.470261,40.800407 183.386673,48.380688 180.091599,53.009735 
	C176.648514,57.846745 169.792435,58.914425 165.282059,55.253052 
	C164.704422,53.218208 169.439331,52.426926 166.742752,49.984325 
	C165.116013,48.510803 162.896500,48.578384 161.118790,49.682755 
	C158.679001,51.198414 159.017685,53.759655 159.774628,55.990822 
	C163.096970,65.783691 168.851685,74.099510 176.036255,81.884766 
M147.314728,62.403294 
	C146.296082,72.127480 145.238815,81.847969 145.138351,91.641624 
	C145.112778,94.132828 145.530716,96.837662 148.246368,97.169220 
	C153.601288,97.822998 158.807159,96.498535 163.375885,93.639488 
	C165.428741,92.354828 165.416595,89.721344 164.326981,87.740036 
	C159.451767,78.875191 154.418106,70.096909 149.377640,61.324146 
	C148.587936,59.949692 147.648239,59.644638 147.314728,62.403294 
M210.750977,86.233147 
	C211.910172,84.797462 212.167892,83.122200 211.404221,81.535385 
	C208.188751,74.854034 204.671295,68.340881 199.917984,61.561661 
	C197.016586,69.191895 194.846375,76.139160 193.293182,83.247643 
	C192.485764,86.942909 194.997391,89.449585 198.221786,89.286697 
	C202.232452,89.084106 206.646698,89.564034 210.750977,86.233147 
M115.430008,106.930168 
	C117.654999,105.179878 118.889290,102.776146 117.127434,100.413139 
	C112.696724,94.470665 107.835640,88.859825 101.820358,83.532036 
	C99.912003,91.145912 100.092758,98.306717 99.524277,105.348183 
	C99.219513,109.123016 102.558563,111.365433 106.376854,110.417397 
	C109.264259,109.700478 112.007172,108.401634 115.430008,106.930168 
z"/>
<path fill="#000000" opacity="1.000000" stroke="none" 
	d="
M113.501541,151.557755 
	C105.885887,154.636124 98.650787,157.617111 91.378670,160.504883 
	C86.256058,162.539093 84.372559,161.353043 83.680534,155.881104 
	C83.493240,154.400116 83.226280,152.928925 82.982338,151.455460 
	C82.107346,146.170364 84.057930,142.254364 89.011276,140.180573 
	C116.595421,128.632065 145.011810,119.938164 174.480286,114.554558 
	C194.179535,110.955688 214.011032,109.115303 233.962479,108.107063 
	C241.917313,107.705070 249.028061,116.281204 247.332901,124.300362 
	C246.685577,127.362648 244.287033,127.291512 241.887024,127.432762 
	C230.258286,128.117142 218.621445,128.566330 207.017609,129.770325 
	C175.046936,133.087555 144.031738,140.396286 113.501541,151.557755 
z"/>
<path fill="#000000" opacity="1.000000" stroke="none" 
	d="
M173.885422,104.752594 
	C194.500198,101.150093 214.823074,98.913231 235.328369,98.482315 
	C236.325897,98.461342 237.328323,98.611572 238.323883,98.570671 
	C240.996841,98.460854 242.999863,99.190742 243.018906,102.315384 
	C243.037979,105.441757 240.981979,106.196922 238.354187,106.177299 
	C228.849487,106.106339 219.420029,107.178604 209.968079,107.966614 
	C178.636490,110.578728 148.139069,117.164101 118.332947,127.062843 
	C107.272362,130.736099 96.397957,134.914780 85.676224,139.482300 
	C83.191750,140.540710 81.008255,141.346786 79.478073,138.034805 
	C77.766655,134.330521 80.274796,133.375687 82.840050,132.262985 
	C111.988960,119.619301 142.216492,110.544594 173.885422,104.752594 
z"/>
<path fill="#000000" opacity="1.000000" stroke="none" 
	d="
M329.097076,164.384186 
	C337.426544,168.315277 339.279541,175.582794 333.915771,182.390961 
	C329.813660,187.597733 324.232544,189.299606 317.909912,188.092590 
	C311.772980,186.921051 308.318604,180.196457 310.394135,174.144379 
	C312.968811,166.636856 320.115448,162.772629 329.097076,164.384186 
z"/>
</svg>